<svg id="duck-cells" xmlns="http://www.w3.org/2000/svg" viewBox="0 0 3671 510">
  <g fill="none" fill-rule="evenodd">
    <g transform="translate(0.0 0)">
      <g transform="translate(0 211.73) scale(1 0.1178) translate(18 0) scale(0.9 1)"><path fill="#3a332b" d="M 126 246 C 116 206, 122 154, 146 118 C 154 106, 166 108, 169 124 C 176 168, 196 206, 216 238 C 190 248, 152 250, 126 246 Z"/></g>
      <path fill="#3a332b" d="M 48 252 C 60 246, 80 238, 108 233 C 150 227, 200 228, 236 224 C 262 220, 278 214, 288 205 C 291 194, 303 189, 313 193 C 322 197, 328 204, 329 210 L 362 220 L 326 227 C 319 233, 308 236, 299 233 C 284 242, 268 249, 250 252 C 242 264, 232 274, 212 279 C 176 287, 128 282, 94 270 C 74 263, 58 257, 48 252 Z"/>
      <g transform="translate(0 203.34) scale(1 0.1527)"><path fill="#3a332b" d="M 126 246 C 116 206, 122 154, 146 118 C 154 106, 166 108, 169 124 C 176 168, 196 206, 216 238 C 190 248, 152 250, 126 246 Z"/></g>
    </g>
    <g transform="translate(367.1 0)">
      <g transform="translate(0 108.17) scale(1 0.5493) translate(18 0) scale(0.9 1)"><path fill="#3a332b" d="M 126 246 C 116 206, 122 154, 146 118 C 154 106, 166 108, 169 124 C 176 168, 196 206, 216 238 C 190 248, 152 250, 126 246 Z"/></g>
      <path fill="#3a332b" d="M 48 252 C 60 246, 80 238, 108 233 C 150 227, 200 228, 236 224 C 262 220, 278 214, 288 205 C 291 194, 303 189, 313 193 C 322 197, 328 204, 329 210 L 362 220 L 326 227 C 319 233, 308 236, 299 233 C 284 242, 268 249, 250 252 C 242 264, 232 274, 212 279 C 176 287, 128 282, 94 270 C 74 263, 58 257, 48 252 Z"/>
      <g transform="translate(0 69.02) scale(1 0.7124)"><path fill="#3a332b" d="M 126 246 C 116 206, 122 154, 146 118 C 154 106, 166 108, 169 124 C 176 168, 196 206, 216 238 C 190 248, 152 250, 126 246 Z"/></g>
    </g>
    <g transform="translate(734.2 0)">
      <g transform="translate(0 54.95) scale(1 0.7710) translate(18 0) scale(0.9 1)"><path fill="#3a332b" d="M 126 246 C 116 206, 122 154, 146 118 C 154 106, 166 108, 169 124 C 176 168, 196 206, 216 238 C 190 248, 152 250, 126 246 Z"/></g>
      <path fill="#3a332b" d="M 48 252 C 60 246, 80 238, 108 233 C 150 227, 200 228, 236 224 C 262 220, 278 214, 288 205 C 291 194, 303 189, 313 193 C 322 197, 328 204, 329 210 L 362 220 L 326 227 C 319 233, 308 236, 299 233 C 284 242, 268 249, 250 252 C 242 264, 232 274, 212 279 C 176 287, 128 282, 94 270 C 74 263, 58 257, 48 252 Z"/>
      <g transform="translate(0 0.00) scale(1 1.0000)"><path fill="#3a332b" d="M 126 246 C 116 206, 122 154, 146 118 C 154 106, 166 108, 169 124 C 176 168, 196 206, 216 238 C 190 248, 152 250, 126 246 Z"/></g>
    </g>
    <g transform="translate(1101.3 0)">
      <g transform="translate(0 108.17) scale(1 0.5493) translate(18 0) scale(0.9 1)"><path fill="#3a332b" d="M 126 246 C 116 206, 122 154, 146 118 C 154 106, 166 108, 169 124 C 176 168, 196 206, 216 238 C 190 248, 152 250, 126 246 Z"/></g>
      <path fill="#3a332b" d="M 48 252 C 60 246, 80 238, 108 233 C 150 227, 200 228, 236 224 C 262 220, 278 214, 288 205 C 291 194, 303 189, 313 193 C 322 197, 328 204, 329 210 L 362 220 L 326 227 C 319 233, 308 236, 299 233 C 284 242, 268 249, 250 252 C 242 264, 232 274, 212 279 C 176 287, 128 282, 94 270 C 74 263, 58 257, 48 252 Z"/>
      <g transform="translate(0 69.02) scale(1 0.7124)"><path fill="#3a332b" d="M 126 246 C 116 206, 122 154, 146 118 C 154 106, 166 108, 169 124 C 176 168, 196 206, 216 238 C 190 248, 152 250, 126 246 Z"/></g>
    </g>
    <g transform="translate(1468.4 0)">
      <g transform="translate(0 211.73) scale(1 0.1178) translate(18 0) scale(0.9 1)"><path fill="#3a332b" d="M 126 246 C 116 206, 122 154, 146 118 C 154 106, 166 108, 169 124 C 176 168, 196 206, 216 238 C 190 248, 152 250, 126 246 Z"/></g>
      <path fill="#3a332b" d="M 48 252 C 60 246, 80 238, 108 233 C 150 227, 200 228, 236 224 C 262 220, 278 214, 288 205 C 291 194, 303 189, 313 193 C 322 197, 328 204, 329 210 L 362 220 L 326 227 C 319 233, 308 236, 299 233 C 284 242, 268 249, 250 252 C 242 264, 232 274, 212 279 C 176 287, 128 282, 94 270 C 74 263, 58 257, 48 252 Z"/>
      <g transform="translate(0 203.34) scale(1 0.1527)"><path fill="#3a332b" d="M 126 246 C 116 206, 122 154, 146 118 C 154 106, 166 108, 169 124 C 176 168, 196 206, 216 238 C 190 248, 152 250, 126 246 Z"/></g>
    </g>
    <g transform="translate(1835.5 0)">
      <g transform="translate(0 268.27) scale(1 -0.1178) translate(18 0) scale(0.9 1)"><path fill="#3a332b" d="M 126 246 C 116 206, 122 154, 146 118 C 154 106, 166 108, 169 124 C 176 168, 196 206, 216 238 C 190 248, 152 250, 126 246 Z"/></g>
      <path fill="#3a332b" d="M 48 252 C 60 246, 80 238, 108 233 C 150 227, 200 228, 236 224 C 262 220, 278 214, 288 205 C 291 194, 303 189, 313 193 C 322 197, 328 204, 329 210 L 362 220 L 326 227 C 319 233, 308 236, 299 233 C 284 242, 268 249, 250 252 C 242 264, 232 274, 212 279 C 176 287, 128 282, 94 270 C 74 263, 58 257, 48 252 Z"/>
      <g transform="translate(0 276.66) scale(1 -0.1527)"><path fill="#3a332b" d="M 126 246 C 116 206, 122 154, 146 118 C 154 106, 166 108, 169 124 C 176 168, 196 206, 216 238 C 190 248, 152 250, 126 246 Z"/></g>
    </g>
    <g transform="translate(2202.6 0)">
      <g transform="translate(0 371.83) scale(1 -0.5493) translate(18 0) scale(0.9 1)"><path fill="#3a332b" d="M 126 246 C 116 206, 122 154, 146 118 C 154 106, 166 108, 169 124 C 176 168, 196 206, 216 238 C 190 248, 152 250, 126 246 Z"/></g>
      <path fill="#3a332b" d="M 48 252 C 60 246, 80 238, 108 233 C 150 227, 200 228, 236 224 C 262 220, 278 214, 288 205 C 291 194, 303 189, 313 193 C 322 197, 328 204, 329 210 L 362 220 L 326 227 C 319 233, 308 236, 299 233 C 284 242, 268 249, 250 252 C 242 264, 232 274, 212 279 C 176 287, 128 282, 94 270 C 74 263, 58 257, 48 252 Z"/>
      <g transform="translate(0 410.98) scale(1 -0.7124)"><path fill="#3a332b" d="M 126 246 C 116 206, 122 154, 146 118 C 154 106, 166 108, 169 124 C 176 168, 196 206, 216 238 C 190 248, 152 250, 126 246 Z"/></g>
    </g>
    <g transform="translate(2569.7 0)">
      <g transform="translate(0 425.05) scale(1 -0.7710) translate(18 0) scale(0.9 1)"><path fill="#3a332b" d="M 126 246 C 116 206, 122 154, 146 118 C 154 106, 166 108, 169 124 C 176 168, 196 206, 216 238 C 190 248, 152 250, 126 246 Z"/></g>
      <path fill="#3a332b" d="M 48 252 C 60 246, 80 238, 108 233 C 150 227, 200 228, 236 224 C 262 220, 278 214, 288 205 C 291 194, 303 189, 313 193 C 322 197, 328 204, 329 210 L 362 220 L 326 227 C 319 233, 308 236, 299 233 C 284 242, 268 249, 250 252 C 242 264, 232 274, 212 279 C 176 287, 128 282, 94 270 C 74 263, 58 257, 48 252 Z"/>
      <g transform="translate(0 480.00) scale(1 -1.0000)"><path fill="#3a332b" d="M 126 246 C 116 206, 122 154, 146 118 C 154 106, 166 108, 169 124 C 176 168, 196 206, 216 238 C 190 248, 152 250, 126 246 Z"/></g>
    </g>
    <g transform="translate(2936.8 0)">
      <g transform="translate(0 371.83) scale(1 -0.5493) translate(18 0) scale(0.9 1)"><path fill="#3a332b" d="M 126 246 C 116 206, 122 154, 146 118 C 154 106, 166 108, 169 124 C 176 168, 196 206, 216 238 C 190 248, 152 250, 126 246 Z"/></g>
      <path fill="#3a332b" d="M 48 252 C 60 246, 80 238, 108 233 C 150 227, 200 228, 236 224 C 262 220, 278 214, 288 205 C 291 194, 303 189, 313 193 C 322 197, 328 204, 329 210 L 362 220 L 326 227 C 319 233, 308 236, 299 233 C 284 242, 268 249, 250 252 C 242 264, 232 274, 212 279 C 176 287, 128 282, 94 270 C 74 263, 58 257, 48 252 Z"/>
      <g transform="translate(0 410.98) scale(1 -0.7124)"><path fill="#3a332b" d="M 126 246 C 116 206, 122 154, 146 118 C 154 106, 166 108, 169 124 C 176 168, 196 206, 216 238 C 190 248, 152 250, 126 246 Z"/></g>
    </g>
    <g transform="translate(3303.9 0)">
      <g transform="translate(0 268.27) scale(1 -0.1178) translate(18 0) scale(0.9 1)"><path fill="#3a332b" d="M 126 246 C 116 206, 122 154, 146 118 C 154 106, 166 108, 169 124 C 176 168, 196 206, 216 238 C 190 248, 152 250, 126 246 Z"/></g>
      <path fill="#3a332b" d="M 48 252 C 60 246, 80 238, 108 233 C 150 227, 200 228, 236 224 C 262 220, 278 214, 288 205 C 291 194, 303 189, 313 193 C 322 197, 328 204, 329 210 L 362 220 L 326 227 C 319 233, 308 236, 299 233 C 284 242, 268 249, 250 252 C 242 264, 232 274, 212 279 C 176 287, 128 282, 94 270 C 74 263, 58 257, 48 252 Z"/>
      <g transform="translate(0 276.66) scale(1 -0.1527)"><path fill="#3a332b" d="M 126 246 C 116 206, 122 154, 146 118 C 154 106, 166 108, 169 124 C 176 168, 196 206, 216 238 C 190 248, 152 250, 126 246 Z"/></g>
    </g>
  </g>
</svg>
