<svg xmlns="http://www.w3.org/2000/svg" viewBox="0 0 512 512" role="img" aria-label="Bloom Journal — pumpkin flower icon">
  <defs>
    <linearGradient id="petalGrad" x1="0" y1="0" x2="0" y2="1">
      <stop offset="0%" stop-color="#FFE066"/>
      <stop offset="55%" stop-color="#F4A300"/>
      <stop offset="100%" stop-color="#C2780C"/>
    </linearGradient>
    <radialGradient id="throatGrad" cx="50%" cy="55%" r="60%">
      <stop offset="0%" stop-color="#C2780C"/>
      <stop offset="100%" stop-color="#7E330A"/>
    </radialGradient>
  </defs>
  <circle cx="256" cy="256" r="256" fill="#8FA88A"/>
  <g><path d="M 256.00 256.00 C 340.63 261.86 386.44 177.22 361.80 110.38 C 284.50 103.16 216.85 171.93 256.00 256.00 Z" fill="url(#petalGrad)" fill-opacity="0.92" stroke="#C2780C" stroke-width="3.75" stroke-opacity="0.55" stroke-linejoin="round"/><path d="M 256.00 256.00 C 276.58 338.30 371.23 355.71 427.19 311.62 C 410.16 235.87 323.86 192.78 256.00 256.00 Z" fill="url(#petalGrad)" fill-opacity="0.92" stroke="#C2780C" stroke-width="3.75" stroke-opacity="0.55" stroke-linejoin="round"/><path d="M 256.00 256.00 C 184.09 301.00 196.78 396.40 256.00 436.00 C 322.78 396.40 337.09 301.00 256.00 256.00 Z" fill="url(#petalGrad)" fill-opacity="0.92" stroke="#C2780C" stroke-width="3.75" stroke-opacity="0.55" stroke-linejoin="round"/><path d="M 256.00 256.00 C 190.98 201.52 104.17 243.06 84.81 311.62 C 143.11 362.90 238.26 347.03 256.00 256.00 Z" fill="url(#petalGrad)" fill-opacity="0.92" stroke="#C2780C" stroke-width="3.75" stroke-opacity="0.55" stroke-linejoin="round"/><path d="M 256.00 256.00 C 287.73 177.33 221.38 107.61 150.20 110.38 C 119.45 181.67 163.95 267.26 256.00 256.00 Z" fill="url(#petalGrad)" fill-opacity="0.92" stroke="#C2780C" stroke-width="3.75" stroke-opacity="0.55" stroke-linejoin="round"/></g>
  <g><g><path d="M 256.00 256.00 C 322.94 216.63 311.13 133.15 256.00 98.50 C 200.88 133.15 189.06 216.63 256.00 256.00 Z" fill="url(#petalGrad)" stroke="#C2780C" stroke-width="4.13" stroke-opacity="0.6" stroke-linejoin="round"/><line x1="252.77" y1="226.17" x2="245.81" y2="162.05" stroke="#C2780C" stroke-width="2.63" stroke-opacity="0.4" stroke-linecap="round"/><line x1="256.00" y1="226.00" x2="256.00" y2="123.70" stroke="#C2780C" stroke-width="3.75" stroke-opacity="0.4" stroke-linecap="round"/><line x1="259.23" y1="226.17" x2="266.19" y2="162.05" stroke="#C2780C" stroke-width="2.63" stroke-opacity="0.4" stroke-linecap="round"/></g><g><path d="M 256.00 256.00 C 314.13 307.49 389.87 270.46 405.79 207.33 C 355.80 165.61 272.76 180.17 256.00 256.00 Z" fill="url(#petalGrad)" stroke="#C2780C" stroke-width="4.13" stroke-opacity="0.6" stroke-linejoin="round"/><line x1="283.37" y1="243.71" x2="342.20" y2="217.28" stroke="#C2780C" stroke-width="2.63" stroke-opacity="0.4" stroke-linecap="round"/><line x1="284.53" y1="246.73" x2="381.82" y2="215.12" stroke="#C2780C" stroke-width="3.75" stroke-opacity="0.4" stroke-linecap="round"/><line x1="285.36" y1="249.86" x2="348.50" y2="236.66" stroke="#C2780C" stroke-width="2.63" stroke-opacity="0.4" stroke-linecap="round"/></g><g><path d="M 256.00 256.00 C 224.99 327.20 283.61 387.79 348.58 383.42 C 372.81 322.99 333.30 248.51 256.00 256.00 Z" fill="url(#petalGrad)" stroke="#C2780C" stroke-width="4.13" stroke-opacity="0.6" stroke-linejoin="round"/><line x1="276.15" y1="278.23" x2="319.46" y2="326.02" stroke="#C2780C" stroke-width="2.63" stroke-opacity="0.4" stroke-linecap="round"/><line x1="273.63" y1="280.27" x2="333.76" y2="363.03" stroke="#C2780C" stroke-width="3.75" stroke-opacity="0.4" stroke-linecap="round"/><line x1="270.91" y1="282.03" x2="302.98" y2="337.99" stroke="#C2780C" stroke-width="2.63" stroke-opacity="0.4" stroke-linecap="round"/></g><g><path d="M 256.00 256.00 C 178.70 248.51 139.19 322.99 163.42 383.42 C 228.39 387.79 287.01 327.20 256.00 256.00 Z" fill="url(#petalGrad)" stroke="#C2780C" stroke-width="4.13" stroke-opacity="0.6" stroke-linejoin="round"/><line x1="241.09" y1="282.03" x2="209.02" y2="337.99" stroke="#C2780C" stroke-width="2.63" stroke-opacity="0.4" stroke-linecap="round"/><line x1="238.37" y1="280.27" x2="178.24" y2="363.03" stroke="#C2780C" stroke-width="3.75" stroke-opacity="0.4" stroke-linecap="round"/><line x1="235.85" y1="278.23" x2="192.54" y2="326.02" stroke="#C2780C" stroke-width="2.63" stroke-opacity="0.4" stroke-linecap="round"/></g><g><path d="M 256.00 256.00 C 239.24 180.17 156.20 165.61 106.21 207.33 C 122.13 270.46 197.87 307.49 256.00 256.00 Z" fill="url(#petalGrad)" stroke="#C2780C" stroke-width="4.13" stroke-opacity="0.6" stroke-linejoin="round"/><line x1="226.64" y1="249.86" x2="163.50" y2="236.66" stroke="#C2780C" stroke-width="2.63" stroke-opacity="0.4" stroke-linecap="round"/><line x1="227.47" y1="246.73" x2="130.18" y2="215.12" stroke="#C2780C" stroke-width="3.75" stroke-opacity="0.4" stroke-linecap="round"/><line x1="228.63" y1="243.71" x2="169.80" y2="217.28" stroke="#C2780C" stroke-width="2.63" stroke-opacity="0.4" stroke-linecap="round"/></g></g>
  <circle cx="256" cy="256" r="46.50" fill="url(#throatGrad)"/>
<circle cx="256" cy="256" r="18.00" fill="#7E330A" fill-opacity="0.7"/>
<ellipse cx="244.00" cy="242.50" rx="12.00" ry="6.75" fill="#FFE066" fill-opacity="0.6"/>
  <g><path d="M 295.68 201.39 Q 306.70 190.72 317.72 171.05" stroke="#6E9A56" stroke-width="10.50" stroke-opacity="0.7" fill="none" stroke-linecap="round"/><path d="M 320.20 276.86 Q 338.03 287.15 355.86 288.45" stroke="#6E9A56" stroke-width="10.50" stroke-opacity="0.7" fill="none" stroke-linecap="round"/><path d="M 256.00 323.50 Q 256.00 346.75 256.00 361.00" stroke="#6E9A56" stroke-width="10.50" stroke-opacity="0.7" fill="none" stroke-linecap="round"/><path d="M 191.80 276.86 Q 173.97 287.15 156.14 288.45" stroke="#6E9A56" stroke-width="10.50" stroke-opacity="0.7" fill="none" stroke-linecap="round"/><path d="M 216.32 201.39 Q 205.30 190.72 194.28 171.05" stroke="#6E9A56" stroke-width="10.50" stroke-opacity="0.7" fill="none" stroke-linecap="round"/></g>
  <path d="M 360 368 C 376 352 396 356 392 376 C 389 390 372 388 374 376 C 376 368 386 370 385 378" stroke="#9CC07A" stroke-width="7.50" fill="none" stroke-linecap="round"/>
</svg>